/* XPM */
static char *_a538361e97443e4c9f2acec14d6baadwIjikTGK9qs0JeKK[] = {
/* columns rows colors chars-per-pixel */
"32 32 21 1 ",
"  c None",
". c #46465E",
"X c #746E72",
"o c #706A6E",
"O c #3A3A50",
"+ c #5F5B63",
"@ c #55B14E",
"# c #40574F",
"$ c #477051",
"% c #4C894E",
"& c #4F9452",
"* c #4D8654",
"= c #46465E",
"- c #D0BE9C",
"; c #EBE4F2",
": c #3A3A50",
"> c #6B4C2C",
", c #A9764F",
"< c #55B14E",
"1 c #455C5B",
"2 c white",
/* pixels */
"                                ",
"                                ",
"                                ",
"                                ",
"                                ",
"                                ",
"                                ",
"           ..........           ",
"           ..........           ",
"         ..XX======XX..         ",
"         ..XX======XX..         ",
"       ..XX==--;;--==XX..       ",
"       ..XX==--;;--==XX..       ",
"       ..==--;;--;;--==..       ",
"       ..==--;;--;;--==..       ",
"       ..oo::------::oo..       ",
"       ..oo::------::oo..       ",
"         OO++::>>::++OO         ",
"         OO++::>>::++OO         ",
"         @@##::,,::##@@@@       ",
"         @@##::,,::##@@@@       ",
"         @@<<::,,::$$<<@@       ",
"         @@<<::,,::$$<<@@       ",
"         @@%%<<<<11<<@@@@       ",
"         @@%%<<<<11<<@@@@       ",
"           @@@@&&&&**@@         ",
"           @@@@&&&&**@@         ",
"                                ",
"                                ",
"                                ",
"                                ",
"                                "
};
