/* XPM */
static char *_0e1a31b47f8472b97468104e3023897b9WBBCcsSrpShYVE[] = {
/* columns rows colors chars-per-pixel */
"32 32 16 1 ",
"  c None",
". c #555836",
"X c #959963",
"o c #BABE95",
"O c #E4E6D1",
"+ c white",
"@ c #CDCDBB",
"# c #B1ABAD",
"$ c #E5E3E3",
"% c #A9AA86",
"& c #736A64",
"* c #2E1E22",
"= c #7D7375",
"- c #86826A",
"; c #888A5B",
": c #A09B90",
/* pixels */
"                                ",
"                                ",
"                                ",
"                                ",
"                                ",
"                                ",
"             .......            ",
"           ..XoooooX..          ",
"          .XoOOOOOOOoX.         ",
"          .oO+++++++Oo.         ",
"         .XOO+++++++OOX.        ",
"         .oooOO+++OOooo.        ",
"         .oO+++OOO+++Oo.        ",
"         .o@##$+++$##@o.        ",
"         .%&**=$+$=**&%.        ",
"         .-****#+#****-.        ",
"         .-****#O#****-.        ",
"         .;&**=;o;=**&;.        ",
"          .%:#$+++$#:%.         ",
"          ..X.OXOXO.X..         ",
"         .oX.........Xo.        ",
"         .+O+++XXX+++O+.        ",
"        .oX.XXo+O+oXX.Xo.       ",
"       .++X.OO+ooo+OO.X++.      ",
"       .+O. .XX.X.XX. .O+.      ",
"        .. .O+oXXXo+O. ..       ",
"           .XX.....XX.          ",
"            .oX. .Xo.           ",
"            .+O. .O+.           ",
"            .++. .++.           ",
"             ..   ..            ",
"                                "
};
