/* XPM */
static char *e32b538d1a0e427adc4aac3a7c6be2cc8yG49qpbAX09uZb4[] = {
/* columns rows colors chars-per-pixel */
"32 32 27 1 ",
"  c None",
". c #46465E",
"X c #7F736E",
"o c #715D5C",
"O c #424259",
"+ c #454B5B",
"@ c #3E3E54",
"# c #424959",
"$ c #3A3A50",
"% c #3F4754",
"& c #3D3D53",
"* c #3E3E55",
"= c #634D4F",
"- c #444F5A",
"; c #555161",
": c #4C495B",
"> c #4E6E61",
", c #A79796",
"< c #46465E",
"1 c #F1CE8E",
"2 c #E0B870",
"3 c #C78C59",
"4 c #3A3A50",
"5 c #B5754D",
"6 c #A85F46",
"7 c #A79796",
"8 c white",
/* pixels */
"                                ",
"  ............................  ",
"  ............................  ",
"..XX<<<<<<<<<<<<<<<<<<<<<<<<oo..",
"..XX<<<<<<<<<<<<<<<<<<<<<<<<oo..",
"..<<111111112211222222222233<<..",
"..<<111111112211222222222233<<..",
"OO<<222222222222222222222233<<++",
"OO<<222222222222222222222233<<++",
"@@4433333333333333333333335544##",
"@@4433333333333333333333335544##",
"$$4433333333333333333333335544%%",
"$$4433333333333333333333335544%%",
"$$4433333333555566333366335544$$",
"$$4433333333555566333366335544$$",
"$$4433666655666655665566665544&&",
"$$4433666655666655665566665544&&",
"$$4433333333333333333333335544**",
"$$4433333333333333333333335544**",
"$$4455555555555555555555555544##",
"$$4455555555555555555555555544##",
"$$==444444444444444444444444==--",
"$$==444444444444444444444444==--",
"  $$$$$$;;::44555544::;;$$$$$$>>",
"  $$$$$$;;::44555544::;;$$$$$$>>",
"      ,,,,774433554477,,,,      ",
"      ,,,,774433554477,,,,      ",
"      ,,7777443355447777,,      ",
"      ,,7777443355447777,,      ",
"      ,,7777774444777777,,      ",
"      ,,7777774444777777,,      ",
"      ,,,,777777777777,,,,      "
};
