/* XPM */
static char *_dfa4bd536464848eea226bc52f47c63zm1PFzrQH6GYrTn7[] = {
/* columns rows colors chars-per-pixel */
"32 32 25 1 ",
"  c None",
". c #55B14E",
"X c #3A3A50",
"o c #3E3E54",
"O c #424259",
"+ c #46465E",
"@ c #534C59",
"# c #635A66",
"$ c #5B525D",
"% c #464050",
"& c #455652",
"* c #69AD59",
"= c #517354",
"- c #598656",
"; c #5D9056",
": c #3A3A50",
"> c #46465E",
", c #9E8277",
"< c #A5907B",
"1 c #B5A07F",
"2 c #CBBD97",
"3 c #5E4E50",
"4 c #7D6961",
"5 c #69AD59",
"6 c white",
/* pixels */
"                   ........     ",
"         XXXXooOO++++++++++    X",
"         XXXXooOO++++++++++    X",
"     XXXX@@::::>>>>>>>>>>##++  X",
"     XXXX@@::::>>>>>>>>>>##++  X",
"   XX$$::::,,<<<<<<<<<<,,>>##++X",
"   XX$$::::,,<<<<<<<<<<,,>>##++X",
" XX%%::,,<<<<<<1111112222,,>>++X",
" XX%%::,,<<<<<<1111112222,,>>++X",
" XX::3344<<<<<<<<1111112222>>OOX",
" XX::3344<<<<<<<<1111112222>>OOX",
" XX::3333,,<<<<<<<<11111111::ooX",
" XX::3333,,<<<<<<<<11111111::ooX",
" XX::333344,,<<<<<<<<<<,,,,::XXX",
" XX::333344,,<<<<<<<<<<,,,,::XXX",
" XX::333333,,,,,,,,,,,,4444::XXX",
" XX::333333,,,,,,,,,,,,4444::XXX",
" XX::44333333,,444444444444::&&&",
" XX::44333333,,444444444444::&&&",
"*&&::4433333344334444444444::==5",
"*&&::4433333344334444444444::==5",
"*55::3333333333::4444444455::555",
"*55::3333333333::4444444455::555",
"*--55::55333333::3344::::5555;;*",
"*--55::55333333::3344::::5555;;*",
" **--5555::::::::55::555555*****",
" **--5555::::::::55::555555*****",
"   ****55555555555555;;******   ",
"   ****55555555555555;;******   ",
"     ******************         ",
"     ******************         ",
"                                "
};
